<svg width="147" height="43" viewBox="0 0 147 43" fill="none" xmlns="http://www.w3.org/2000/svg">
<path d="M4.42696 41.6361C3.82366 41.657 3.22276 41.55 2.66377 41.3221C2.10477 41.0942 1.60033 40.7506 1.18361 40.3139C0.766886 39.8771 0.447312 39.3571 0.245893 38.7881C0.0444742 38.219 -0.0342289 37.6137 0.0149571 37.0121V27.2531C0.0149571 19.8541 6.03596 16.1831 12.009 16.1831C17.982 16.1831 23.974 19.8541 23.974 27.2531V41.6361H23.194C22.5907 41.657 21.9898 41.55 21.4308 41.3221C20.8718 41.0942 20.3673 40.7506 19.9506 40.3139C19.5339 39.8771 19.2143 39.3571 19.0129 38.7881C18.8115 38.219 18.7328 37.6137 18.782 37.0121V27.2531C18.782 23.3031 15.4 21.3091 12.038 21.3091C8.67596 21.3091 5.29396 23.3031 5.29396 27.2531V41.6361H4.42696ZM7.80796 30.7021H13.408C13.8107 30.6878 14.2119 30.7579 14.5859 30.9079C14.9599 31.0578 15.2984 31.2844 15.5797 31.5729C15.861 31.8614 16.0788 32.2056 16.2192 32.5833C16.3596 32.961 16.4195 33.3639 16.395 33.7661V35.1531H10.875C10.4669 35.1784 10.058 35.1168 9.67548 34.9725C9.29294 34.8281 8.94538 34.6042 8.65578 34.3155C8.36619 34.0269 8.14113 33.68 7.9955 33.298C7.84987 32.9159 7.78697 32.5073 7.81096 32.0991L7.80796 30.7021Z" fill="black"/>
<path d="M28.7139 37.754H41.2379C44.0509 37.754 46.1899 36.935 46.1899 35.085C46.1899 32.917 43.2999 32.272 39.8119 31.559C34.9949 30.528 29.0989 29.247 29.0989 23.476C29.1089 18.206 33.9839 16 39.3239 16H50.2939V20.74H39.6939C36.9479 20.74 34.8769 21.588 34.8769 23.63C34.8769 25.672 37.7669 26.26 41.1389 26.944C45.9559 27.907 52.0059 29.073 52.0059 34.95C52.0059 40.326 46.6589 42.503 40.7529 42.503H33.0489C32.4628 42.5255 31.8787 42.423 31.3353 42.2025C30.7919 41.9819 30.3016 41.6483 29.897 41.2237C29.4924 40.7992 29.1828 40.2934 28.9886 39.74C28.7945 39.1866 28.7202 38.5983 28.7709 38.014L28.7139 37.754Z" fill="black"/>
<path d="M60.979 22.1949C60.4098 22.2338 59.8388 22.1498 59.3049 21.9487C58.771 21.7475 58.2867 21.4339 57.8846 21.0291C57.4826 20.6243 57.1723 20.1378 56.9748 19.6026C56.7773 19.0673 56.6972 18.4958 56.74 17.9269V16.7129H61.933V22.1949H60.979Z" fill="#FB4D3D"/>
<path d="M60.978 41.6359C60.3987 41.6554 59.8218 41.5522 59.2851 41.3331C58.7485 41.1141 58.2641 40.7841 57.8639 40.3648C57.4637 39.9455 57.1566 39.4463 56.9627 38.9C56.7689 38.3538 56.6926 37.7727 56.739 37.1949V24.2949H61.932V41.6359H60.978Z" fill="black"/>
<path d="M65.3919 16.7129H91.2019V21.1249H69.0429C68.5396 21.1409 68.0386 21.051 67.5724 20.8611C67.1061 20.6711 66.6849 20.3852 66.3362 20.0221C65.9874 19.6589 65.7189 19.2265 65.5479 18.7529C65.377 18.2793 65.3075 17.7751 65.3439 17.2729L65.3919 16.7129ZM75.3629 23.7939H80.5559V41.6359H79.4959C78.9295 41.6556 78.3654 41.555 77.8408 41.3407C77.3162 41.1264 76.843 40.8033 76.4524 40.3927C76.0619 39.9821 75.7628 39.4933 75.575 38.9587C75.3872 38.424 75.3149 37.8556 75.3629 37.2909V23.7939Z" fill="black"/>
<path d="M93.3398 16.7129H99.3608L104.737 25.0459L104.063 26.0089C103.879 26.4226 103.579 26.774 103.199 27.0207C102.82 27.2673 102.377 27.3986 101.924 27.3986C101.471 27.3986 101.028 27.2673 100.648 27.0207C100.269 26.774 99.9688 26.4226 99.7848 26.0089L93.3398 16.7129ZM103.6 31.1639L113.032 16.7129H119.053L108.793 31.5979V41.6359H107.83C105.296 41.6359 103.591 39.8539 103.591 37.1469L103.6 31.1639Z" fill="black"/>
<path d="M140 0H120C116.134 0 113 3.13401 113 7C113 10.866 116.134 14 120 14H140C143.866 14 147 10.866 147 7C147 3.13401 143.866 0 140 0Z" fill="#DD4242"/>
<path d="M123.72 7.13596C124.035 7.19463 124.293 7.35196 124.496 7.60796C124.699 7.86396 124.8 8.15729 124.8 8.48796C124.8 8.78663 124.725 9.05063 124.576 9.27996C124.432 9.50396 124.221 9.67996 123.944 9.80796C123.667 9.93596 123.339 9.99996 122.96 9.99996H120.552V4.41596H122.856C123.235 4.41596 123.56 4.47729 123.832 4.59996C124.109 4.72263 124.317 4.89329 124.456 5.11196C124.6 5.33063 124.672 5.57863 124.672 5.85596C124.672 6.18129 124.584 6.45329 124.408 6.67196C124.237 6.89063 124.008 7.04529 123.72 7.13596ZM121.672 6.71996H122.696C122.963 6.71996 123.168 6.66129 123.312 6.54396C123.456 6.42129 123.528 6.24796 123.528 6.02396C123.528 5.79996 123.456 5.62663 123.312 5.50396C123.168 5.38129 122.963 5.31996 122.696 5.31996H121.672V6.71996ZM122.8 9.08796C123.072 9.08796 123.283 9.02396 123.432 8.89596C123.587 8.76796 123.664 8.58663 123.664 8.35196C123.664 8.11196 123.584 7.92529 123.424 7.79196C123.264 7.65329 123.048 7.58396 122.776 7.58396H121.672V9.08796H122.8ZM127.133 5.31996V6.71996H129.013V7.60796H127.133V9.08796H129.253V9.99996H126.013V4.40796H129.253V5.31996H127.133ZM134.39 4.41596V5.31996H132.902V9.99996H131.782V5.31996H130.294V4.41596H134.39ZM138.952 8.93596H136.728L136.36 9.99996H135.184L137.192 4.40796H138.496L140.504 9.99996H139.32L138.952 8.93596ZM138.648 8.03996L137.84 5.70396L137.032 8.03996H138.648Z" fill="white"/>
</svg>
